# xmcd CD database file
#
# Track frame offsets:
#	150
#	12213
#	28710
#	45693
#	58680
#	73253
#	88110
#	101530
#	116103
#	127318
#	139155
#	155618
#	165785
#	179248
#	192020
#	206300
#
# Disc length: 2957 seconds
#
# Revision: 2
# Processed by: cddbd v1.4PL0 Copyright (c) Steve Scherf et al.
# Submitted via: CDex 1.50
#
DISCID=e60b8b10
DTITLE=Billie Holiday - Recital By Billie Holiday
DYEAR=1994
DGENRE=Blues
TTITLE0=My Man
TTITLE1=Lover, Come Back to Me
TTITLE2=Stormy Weather
TTITLE3=Yesterdays
TTITLE4=He's Funny That Way
TTITLE5=I Can't Face the Music
TTITLE6=How Deep Is the Ocean
TTITLE7=What a Little Moonlight Can Do
TTITLE8=I Cried for You
TTITLE9=Love Me or Leave Me
TTITLE10=P.S. I Love You
TTITLE11=Too Marvelous for Words
TTITLE12=Softly
TTITLE13=I Thought About You
TTITLE14=Willow Weep for Me
TTITLE15=Stormy Blues
EXTD=This is the third of seven albums that will present all of Billie Holiday's Verve recordings.  Where possible, the volumes will further the Billie Holiday Story chronologically while ensuring that each complete session appears intact on a CD.\n\nLik
EXTD=e the previous CD in this series, The Billie Holiday Story Volume 3 showcases Lady Day with the great Oscar Peterson.  For contrast, her next session was with her favorite accompanist, pianist Bobby Tucker.  By now her lifestyle was taking its toll,
EXTD=and her voice sounded different on each date, but her way with a lyric was more her own than ever.  Such tunes as "My Man" and "Love Me or Leave Me" display the burnished voice and sensibility of the dazzling, mature artist she had become.  As Dona
EXTD=ld Clarke, her latest biographer says in his liner note, "She had plenty to complain about, but she was far from helpless.  She took on racism, sexism, and the music industry, and in the end she did as she pleased and mostly succeeded." YEAR: 1994
EXTT0=
EXTT1=
EXTT2=
EXTT3=
EXTT4=
EXTT5=
EXTT6=
EXTT7=
EXTT8=
EXTT9=
EXTT10=
EXTT11=
EXTT12=
EXTT13=
EXTT14=
EXTT15=
PLAYORDER=
